<svg xmlns="http://www.w3.org/2000/svg" viewBox="0 0 52 44"><path fill-rule="evenodd" clip-rule="evenodd" fill="#FCE201" d="M46.2 40.1l-.4.4v.9h-3.6v-.8-.1l-.4-.4V22l.3-.4h3.7l.3.4v18.1h.1zm-7.6 0l-.4.4v.9h-4.4v-.8-.1l-.4-.4V22l.3-.4h4.6l.3.4v18.1zm-8.5 0l-.4.4v.9h-7.4v-.8-.1l-.4-.4V22l.4-.4h7.5l.4.4v18.1h-.1zM22.9 8.3h.2V9.2l-.3-.2c0-.1-.1-.3-.1-.4v-.1c0-.1.1-.1.2-.2zm6.1-.1c-.3.2-.3.6-.3.9v.1l-.1.1v-.4c0-.1 0-.2-.1-.3 0-.1-.1-.2-.2-.3.3-.1.5-.1.7-.1zM18.7 40.1l-.4.4v.9h-4.4v-.8-.1l-.4-.4V22l.4-.4h4.6l.4.4v18.1h-.2zm-8.5 0l-.4.4v.9H6.2v-.8-.1l-.4-.4V22l.4-.4h3.7l.4.4v18.1zm41.7 1.3h-2.4V22.8l.8-1.2v-.1l-.1-.1h-.7V19l1.6-1.2.1-.1v-.3l.8-.4.1-.1s0-.1-.1-.1l-.8-.4H49.5V16c0-.1 0-.1-.1-.1H49V14l1-1.2v-.1l-.1-.1H33.3v-.3c0-.1-.1-.1-.1-.1h-.3v-.3c0-.1 0-.1-.1-.1h-.5v-.1c0-.1-.1-.1-.1-.1h-1.9s0-.1-.1-.1v-.1c0-.2-.1-.3 0-.5 0-.2.1-.3 0-.4v-.2l.1-.1c.1 0 .2.1.3 0h.2s0 .1.1.1v.6c0 .1-.1.2-.1.4 0 .1.1.1.2.1s.3-.1.4-.3V11v-.5c0-.2 0-.3.1-.5v-.4s0-.1-.1-.1h-.1c-.1-.1-.1-.1-.1-.2v-.1V9l.1-.3c0-.1 0-.1-.1-.3 0-.1-.1-.2-.2-.3h.1c.1 0 .2.1.3-.1v-.1l.1-.2v-.2V7.2v-.1c0-.1 0-.1-.1-.2.1 0 .1-.1.1-.1v-.1h-.1-.1c-.1-.1-.2-.2-.3-.2-.2 0-.3.1-.4.2l-.1.1v.1c0 .1-.1.2-.1.2-.1.2-.2.4-.2.6l-.2.1v.1h-.1c-.4 0-1-.1-1.5-.2V7.1c0-.1 0-.2-.1-.3.1-.1 0-.2 0-.2s0-.1-.1-.1h-.1c-.1-.1-.3-.1-.4 0h-.1c-.1.1-.2.2-.1.4v.5c-.3-.3-.5-.3-.6-.4 0-.5.1-1 .1-1.5 0-.2 0-.9-.1-1-.1-.2-.4-.3-.6-.2l-.1-.1-.1-.1v-.5-.1-.1l.1-.1c.3-.1.6-.4.6-.8 0-.3-.1-.5-.3-.7v-.1h.1s.1 0 .1-.1v-.1s.1 0 .1-.1h.1s.1 0 .1-.1l.1-.1.1-.1.1-.1V.9l.1-.1.1-.1V.3c0-.1.1-.2 0-.2-.1-.1-.2 0-.3.1h-.1c-.1.1-.2.1-.3.2-.1 0-.2.1-.4.2V.5c0-.1 0-.1-.1-.1 0 0 0-.1-.1-.1h-.1-.1l-.1.1c.1 0 .1.1.1.2l-.1-.1h-.1c-.1-.1-.3-.1-.4-.2h-.1c0-.1-.1-.2-.2-.2C25 0 25 0 25 .1v.2c0 .1 0 .1.1.2V1c0 .1 0 .1.1.1v.2s.1 0 .1.1h.2c-.1 0-.1 0-.1.1v.1c-.2.1-.3.4-.3.6 0 .3.2.6.5.8 0 .1 0 .1.1.1v.7h-.1-.1-.1-.1c-.1 0-.1 0-.1.1 0 0-.1.1 0 .1V4.3l.1.1V4.7s-.1 0-.2.1c-.1-.1-.1-.2-.1-.3v-.1c-.3-.4-.7-.2-.8.4 0 .2-.1.7-.1 1V6h-.2-.1s-.1 0-.1.1V6.4c-.1.1-.1.3 0 .3v.2l-.1.1v.1c0 .1 0 .1.1.2l-.6.3-.2.4h-1.2v-.4c0-.2 0-.4-.2-.6 0-.1-.1-.3-.2-.4-.1-.1-.1-.2-.3-.2-.1-.1-.2-.1-.2-.1h-.2s-.1 0-.1.1v.1s-.1-.1-.1 0c-.1 0-.1 0-.1.1-.1.2 0 .3.1.3V7l-.1.1s0 .1.1.2l.1.1v.4l.1.1c0 .1.1.1.1.2 0 0 .1.1.1.2v.2c0 .1-.1.2-.1.3-.1.1 0 .2 0 .2 0 .1 0 .2.1.2v.2c0 .1-.1.2-.1.2v.4c.1.1.1.2.1.4v.1s0 .1.1.1v.2c0 .2.1.4.3.4h.1c.1 0 .2-.1.2-.2s0-.3-.2-.4v-.1-.1l-.1-.2v-.3h.1s.1.1.2.1c0 .1 0 .1.1.2 0 .1.1.2.2.3 0 .1.1.3.1.6v.3l-.1.1v.1H20c-.1 0-.1.1-.1.1v.1h-.7c-.1 0-.1 0-.1.1v.3h-.3c-.1 0-.1.1-.1.1v.3H2.1c-.1 0-.1 0-.1.1v.1l1 1.1v2h-.3c-.1 0-.1.1-.1.1v.3H.9l-.9.4-.1.1s0 .1.1.1l.8.4v.5L2.5 19v2.4h-.7c-.1 0-.1 0-.1.1v.1l.8 1.2v18.6H.1c-.1 0-.1.1-.1.1v2.4l.1.1h51.8c.1 0 .1-.1.1-.1v-2.4l-.1-.1z"/></svg>