<svg xmlns="http://www.w3.org/2000/svg" viewBox="0 0 41 40"><path fill-rule="evenodd" clip-rule="evenodd" fill="#FCE201" d="M12.5 18.4c-3.2 0-4.1-3.5-4.1-7.8s.9-7.8 4.1-7.8 4 3.5 4 7.8-.8 7.8-4 7.8zm0-18.4C8 0 5.9 3.4 5.4 7.9L0 37.3c-.1.6.2 1.1.7 1.5.2.1.5.2.8.2.3 0 .5-.1.8-.2l1.7-1c.7-.4 1.5-.6 2.3-.6.9 0 1.8.2 2.5.7l2.9 1.8c.3.2.5.2.8.2s.6-.1.8-.3l2.7-1.8c.8-.5 1.7-.8 2.6-.8.8 0 1.6.2 2.3.6l1.8 1c.3.4.6.4.8.4.3 0 .6-.1.9-.3.5-.3.7-.9.7-1.4L19.6 7.9C19.1 3.4 17 0 12.5 0zM28.5 18.4c-3.2 0-4.1-3.5-4.1-7.8s.8-7.8 4.1-7.8c3.2 0 4 3.5 4 7.8s-.8 7.8-4 7.8zm7.1-10.5C35.1 3.4 33 0 28.5 0c-4 0-6.1 2.6-6.9 6.3.1.4.1.8.2 1.2L27.2 37c.1.8-.1 1.5-.4 2.2l.9.6c.3.2.5.2.8.2.3 0 .6-.1.8-.3L32 38c.8-.5 1.7-.8 2.6-.8.8 0 1.6.2 2.3.6l1.8 1c.3.2.5.2.8.2.3 0 .6-.1.8-.3.5-.3.7-.9.7-1.4L35.6 7.9z"/></svg>