<svg xmlns="http://www.w3.org/2000/svg" viewBox="0 0 40 38"><g fill="#fff"><path fill-rule="evenodd" clip-rule="evenodd" d="M12.1 6.4h16V12l-8-2.5-8 2.5V6.4zM5.6 28C2.9 28 .3 29.5 0 29.7l1.7 2.8s2.1-1.2 4-1.2c.8 0 1.2.2 1.8.6.7.4 1.6.9 3.1.9s2.3-.5 3-.9c.6-.3.9-.5 1.7-.5.8 0 1.2.2 1.8.6.7.4 1.6.9 3 .9 1.5 0 2.5-.5 3.3-1 .6-.3 1-.5 1.5-.5s.8.2 1.4.5c.8.4 1.8 1 3.5 1s2.7-.6 3.5-1c.6-.3.9-.5 1.3-.5 1.1 0 3.1.8 4.1 1.3l1.4-2.9c-.3-.2-3.4-1.6-5.5-1.6-1.3 0-2.2.5-2.9.9-.2.1-.4.2-.7.3.4-7.3 4.6-14.9 4.6-14.9l-3.9-1.2V3.2h-6.9V0h-9.3v3.2h-7v9.9l-3.9 1.2s4.2 7.4 4.6 14.8L9 29c-.8-.5-1.8-1-3.4-1z"/><path d="M31.6 34.2c-.6.3-1.1.6-1.9.6s-1.3-.2-1.9-.6c-.7-.4-1.6-.9-2.9-.9-1.3 0-2.2.5-3 .9-.6.3-1.1.6-1.8.6-.6 0-.9-.2-1.4-.5-.7-.4-1.7-1-3.4-1s-2.7.6-3.4 1c-.5.3-.8.5-1.3.5-.6 0-.9-.2-1.5-.5-.7-.4-1.7-1-3.4-1C3 33.3.4 34.8.1 35l1.7 2.8s2.1-1.2 4-1.2c.8 0 1.2.2 1.8.6.7.4 1.6.9 3.1.9s2.3-.5 3-.9c.6-.3.9-.5 1.7-.5.8 0 1.2.2 1.8.6.7.4 1.6.9 3 .9 1.5 0 2.5-.5 3.3-1 .6-.3 1-.5 1.5-.5s.8.2 1.4.5c.8.4 1.8 1 3.5 1s2.7-.6 3.5-1c.6-.3.9-.5 1.3-.5 1.1 0 3.1.8 4.1 1.3l1.2-3c-.3-.2-3.4-1.6-5.5-1.6-1.3-.1-2.2.4-2.9.8z"/></g></svg>