<svg xmlns="http://www.w3.org/2000/svg" viewBox="0 0 56 29"><path fill-rule="evenodd" clip-rule="evenodd" fill="#FCE201" d="M50.3 27.1c-.9 0-1.7-.8-1.7-1.7 0-.9.8-1.7 1.7-1.7.9 0 1.7.8 1.7 1.7 0 .9-.8 1.7-1.7 1.7zm0-5.3c-2 0-3.6 1.6-3.6 3.6s1.6 3.6 3.6 3.6 3.6-1.6 3.6-3.6-1.6-3.6-3.6-3.6zm3.4-4c0 .1-.1.2-.2.2h-3.3c-.2 0-.2-.1-.2-.2v-4.3c0-.1.1-.2.2-.2h3.3c.1 0 .2.1.2.2v4.3zm-4.4 0c0 .1-.1.2-.2.2h-2.7c-.1 0-.2-.1-.2-.2v-4.3c0-.1.1-.2.2-.2h2.7c.1 0 .2.1.2.2v4.3zm-3-15c0-.4.3-.7.7-.7h2.3c2.5 0 3.7 1.4 3.7 3.4 0 .2-.2.4-.4.4H47c-.4 0-.7-.3-.7-.7V2.8zm-1.2 2.4c0 .4-.3.7-.7.7h-6.2c-.4 0-.7-.3-.7-.7V2.8c0-.4.3-.7.7-.7h6.2c.4 0 .7.3.7.7v2.4zm0 12.1c0 .4-.3.7-.7.7h-6.2c-.4 0-.7-.3-.7-.7v-2.4c0-.4.3-.7.7-.7h6.2c.4 0 .7.3.7.7v2.4zM36.5 5.2c0 .4-.3.7-.7.7h-6.2c-.4 0-.7-.3-.7-.7V2.8c0-.4.3-.7.7-.7h6.2c.4 0 .7.3.7.7v2.4zm0 12.1c0 .4-.3.7-.7.7h-6.2c-.4 0-.7-.3-.7-.7v-2.4c0-.4.3-.7.7-.7h6.2c.4 0 .7.3.7.7v2.4zM27.9 5.2c0 .4-.3.7-.7.7H21c-.4 0-.7-.3-.7-.7V2.8c0-.4.3-.7.7-.7h6.2c.4 0 .7.3.7.7v2.4zm0 12.1c0 .4-.3.7-.7.7H21c-.4 0-.7-.3-.7-.7v-2.4c0-.4.3-.7.7-.7h6.2c.4 0 .7.3.7.7v2.4zM19.2 5.2c0 .4-.3.7-.7.7h-6.2c-.4 0-.7-.3-.7-.7V2.8c0-.4.3-.7.7-.7h6.2c.4 0 .7.3.7.7v2.4zm0 12.1c0 .4-.3.7-.7.7h-6.2c-.4 0-.7-.3-.7-.7v-2.4c0-.4.3-.7.7-.7h6.2c.4 0 .7.3.7.7v2.4zM10.5 5.2c0 .4-.3.7-.7.7H3.7c-.1 0-.4-.2-.4-.4 0-2 1.7-3.4 4.2-3.4h2.4c.4 0 .7.3.7.7v2.4h-.1zm44.6 13.3h-.4l-.2-6.7v-.9l-1.1-8.7C53.2 1 52.1 0 50.8 0h-45C2.6 0 0 2.6 0 5.8v19.7c0 .5.4.9.9.9h9.7c.1 0 .2-.1.2-.2v-.8c0-2.6 2.1-4.7 4.7-4.7s4.7 2.1 4.7 4.7v.8c0 .1.1.2.2.2h24.9c.1 0 .2-.1.2-.2v-.8c0-2.6 2.1-4.7 4.7-4.7s4.7 2.1 4.7 4.7v.4h.1c.5 0 .9-.4.9-.9v-5.4c.1-.6-.3-1-.8-1zm-39.5 8.6c-.9 0-1.7-.8-1.7-1.7 0-.9.8-1.7 1.7-1.7.9 0 1.7.8 1.7 1.7 0 .9-.8 1.7-1.7 1.7zm0-5.3c-2 0-3.6 1.6-3.6 3.6s1.6 3.6 3.6 3.6 3.6-1.6 3.6-3.6-1.6-3.6-3.6-3.6z"/></svg>