<svg xmlns="http://www.w3.org/2000/svg" viewBox="0 0 100 62"><g fill="#FFDF00"><path d="M99.7 3.1L98 11.9c-.1.3-.1.7-.2 1.1-3.5-1.9-7.2-3-11-3.3-1.3-.1-2.7 0-4.1.2-.4.1-.8.6-1.2.9.3.4.6 1 1 1.1 2.4.9 4.9 1.7 7.3 2.6 1.1.4 2.2.9 3.3 1.4 6.7 3.3 6.6 9.9 4.1 14.4-2.1 3.8-5.6 5.7-9.6 6.5-6.3 1.3-12.5.8-18.4-2-2-.9-1.9-1-1.6-3.1.5-3 .9-6 1.4-9.1 2.9 2.5 6.2 4 9.9 4.7 1.9.4 3.9.3 5.8.4.6 0 1.2-.3 1.8-.6 1.1-.7 1.1-1.8 0-2.4-1-.5-2.2-.9-3.3-1.2-2.2-.8-4.5-1.5-6.7-2.4-3.6-1.5-6.2-3.8-6.4-8-.2-4.3 1.3-7.9 5.1-10.3 2.3-1.5 5-2.2 7.7-2.6.4 0 .8-.1 1.3-.2h4.7c3.7.5 7.4 1.3 10.8 2.8v.3zM24 .1l6.3 1.2c.6.1 1.1.3 1.8.5L30.4 12C27 10.5 23.5 9.9 20 10.2c-3.4.3-6.3 1.7-7.7 5s-1.6 6.7.6 9.8c2.3 3.4 7.3 3.3 9.6 2.1.3-.2.6-.5.6-.9l1.5-9.6c.1-.3.5-.9.7-.9 3.1-.1 6.1 0 9.2 0h1.2c-.3 2-.6 3.9-.9 5.8-.5 3.1-1.1 6.3-1.5 9.4-.2 1.2-.7 2-1.6 2.7-2.8 1.9-6 3-9.4 3.5-4.3.6-8.5.5-12.6-1.4-5.5-2.6-8.7-6.9-9.5-13 0-.3-.1-.7-.2-1.1v-2.9c.1-.3.2-.5.2-.8C1.2 9.4 5.8 3.8 14 1.2 15.7.7 17.4.4 19.1 0H24zM53 36.7H42.1l4.2-26.4H36.1L37.5.8H69l-1.5 9.4H57.2"/></g><path fill-rule="evenodd" clip-rule="evenodd" fill="#FFF" d="M41.3 55.8c-1.1 1.7-2.8 2.7-4.7 3.1-1.7.3-2.6-.5-2.2-2.3.1-.6.3-1.2.7-1.6 1.3-1.8 3-2.9 5.2-3.1 1.2-.1 1.9.6 2 1.8-.4.6-.6 1.4-1 2.1zm-21.2-6.3c-.5.4-1.2.4-1.5-.1-.3-.4-.1-1.1.4-1.4.5-.4 1.2-.3 1.5.1.3.4.1 1-.4 1.4zm79.9 5.1l-.1-9.7H89.6v2.2h6.2C83.9 59 84.8 57.3 83.6 58l-.2-.2c.9-2.1.3-3.8-1.3-5.3-.5-.5-1-.9-1.5-1.4-.6-.6-.7-1.2-.1-1.9.7-.9 1.2-2 1.9-3.2l-3.1-.4c-.6 1.9-1.7 3.4-3.2 4.7-3.3 2.8-6.7 5.5-10 8.3-.2.2-.7.2-1 .2 0-.3-.2-.7-.1-1 .3-1.3.7-2.5 1-3.8.7-3.3-1.2-5.6-4.5-5.2-1.5.2-3 .8-4.6 1.2l.2-1.3h-2.2c-.5 0-.8.1-1 .7-.2 1-.5 2-.7 2.9-.1.3-.2.7-.5.9-2.3 1.8-4.5 3.6-6.8 5.4-.2.2-.6.2-.9.3-.1-.3-.3-.6-.2-.9.1-1.3.3-2.5.5-3.8.6-3.8-1.6-6-5.4-5.3-1.8.3-3.5 1.2-4.9 2.3-2.3 1.8-4.5 3.6-6.8 5.4-.9.7-1.8 1.4-2.8 1.9-.4.2-.9.1-1.4.1 0-.4-.2-1-.1-1.3.6-1.7 1.3-3.4 2.1-5 .6-1.3 1.4-2.5 2.2-3.8l-5.6.7c.1-.5.1-.8.2-1.2.1-1.3-.5-2.3-1.7-2.6-1.6-.5-3.7.5-4.6 1.9-.9 1.6-.6 3 1 4.5-1 .9-1.9 1.8-2.9 2.6-1.7 1.4-3.4 2.7-5.1 4-.4.3-1.4.4-1.7.1-.4-.2-.4-1.1-.3-1.7.2-1.1.5-2.2.8-3.3.5-1.9.5-1.9 2.4-1.9 2.9 0 2.9 0 3.4-2.8v-.3H9.3l1.3-5.7c-.8 0-1.4.1-2 0-.8-.1-1.1.2-1.3 1-.3 1.6-.7 3.2-1.2 4.8-1.1-.1-2.9.2-4 .1L0 51.5c1.3.2 5.2.1 5.2.1s-1 5.2-1.1 6c-.5 3 1.6 5 4.5 4.1.9-.3 1.9-.7 2.6-1.2 2.9-2.3 5.7-4.7 8.4-7.2 1-1 2-1 3.2-1-.4.7-.7 1.3-.9 2-.5 1.6-1.1 3.2-1.3 4.9-.2 1.8 1.1 2.7 2.9 2.6 2.3-.1 4.1-1.5 5.8-2.8l1.7-1.3c.4 3.4 2.4 4.9 5.5 4.1 1.6-.4 3.2-1.2 4.8-1.9 1 1.8 2.1 2.4 3.8 1.9.9-.2 1.8-.8 2.6-1.4 1.3-1 2.6-2 4.1-3.2l-1.1 4.7h3.1c.4-1.7.8-3.4 1.2-5 .7-2.9 3.4-5.2 6.1-5.2 1.1 0 1.8.6 1.7 1.7 0 .5-.1 1-.2 1.5-.3 1.2-.7 2.4-.9 3.6-.4 2.2 1.4 3.9 3.5 3.4.7-.2 1.4-.5 2-1 1.3-.9 2.5-2 3.7-3l6.2-5.1c.9.8 1.7 1.5 2.5 2.2 1.5 1.3 1.2 2.9-.7 3.5-2 .7-3.8.3-5.4-1.2l-2.7 2c.8 1.2 1.9 1.8 3.1 2.2 2.1.6 4.1.5 6.2.2 3.2-.5 6-.6 17.5-12.9v5.8h2.4z"/></svg>